<?xml version="1.0" encoding="UTF-8"?>
<svg width="36px" height="36px" viewBox="0 0 36 36" version="1.1" xmlns="http://www.w3.org/2000/svg" xmlns:xlink="http://www.w3.org/1999/xlink">
    <!-- Generator: Sketch 60.1 (88133) - https://sketch.com -->
    <title>Combined Shape</title>
    <desc>Created with Sketch.</desc>
    <g id="Page-1" stroke="none" stroke-width="1" fill="none" fill-rule="evenodd">
        <g id="Landing-Copy-3" transform="translate(-1676.000000, -48.000000)" fill="#000000" fill-rule="nonzero">
            <path d="M1677.25314,59.3076827 C1680.40984,51.3198953 1688.80119,46.7062123 1697.2371,48.3202288 C1705.673,49.9342453 1711.7686,57.3196754 1711.75375,65.908579 C1711.7443,72.0192831 1708.6141,77.701789 1703.45422,80.9753771 L1703.45422,80.9753771 L1703.0967,81.1796726 C1702.63817,81.4599683 1702.16507,81.7156983 1701.6794,81.945781 L1701.6794,81.945781 L1701.16866,82.188382 L1700.38978,82.5075938 L1699.72582,82.7501948 L1698.99802,82.9927958 C1698.55112,83.1204805 1698.10423,83.2481653 1697.65733,83.3375446 L1697.65733,83.3375446 L1697.17213,83.4269239 C1696.80184,83.4907662 1696.41879,83.592914 1696.03574,83.592914 L1696.03574,83.592914 L1695.53777,83.6567564 C1695.01426,83.7333672 1694.47798,83.7333672 1693.94171,83.7333672 C1693.40543,83.7333672 1692.86915,83.6567564 1692.34565,83.6567564 L1692.34565,83.6567564 L1691.84768,83.592914 C1691.46462,83.5546086 1691.08157,83.4269239 1690.71128,83.4269239 L1690.71128,83.4269239 L1690.22608,83.3375446 C1689.77918,83.2481653 1689.33229,83.1204805 1688.88539,82.9927958 L1688.88539,82.9927958 L1688.15759,82.7501948 L1687.49363,82.5075938 L1686.6126,82.2011505 L1686.10186,81.9585495 C1685.61619,81.7284668 1685.14309,81.4727368 1684.68456,81.1924411 L1684.68456,81.1924411 L1684.32705,80.9881455 L1684.01409,80.7857983 C1676.982,76.1355555 1674.14219,67.179705 1677.25314,59.3076827 Z M1693.87786,73.6031534 C1690.40222,73.6031534 1687.36205,75.9429141 1686.47215,79.3027071 C1691.0857,81.8306496 1696.67003,81.8306496 1701.28358,79.3027071 C1700.39368,75.9429141 1697.35351,73.6031534 1693.87786,73.6031534 Z M1693.87786,50.5693034 C1687.38083,50.5693034 1681.59016,54.6668268 1679.42858,60.7937298 C1677.26699,66.9206328 1679.20451,73.7446783 1684.2632,77.8215643 C1685.71922,73.763425 1689.56643,71.0564247 1693.87786,71.0564247 C1698.1893,71.0564247 1702.03651,73.763425 1703.49252,77.8215643 C1708.55122,73.7446783 1710.48873,66.9206328 1708.32715,60.7937298 C1706.16556,54.6668268 1700.37489,50.5693034 1693.87786,50.5693034 Z M1693.87786,54.4169534 C1695.90971,54.4169534 1697.85834,55.224101 1699.29507,56.6608329 C1700.7318,58.0975648 1701.53895,60.0461914 1701.53895,62.0780372 C1701.53895,66.3091369 1698.10896,69.7391209 1693.87786,69.7391209 C1689.64676,69.7391209 1686.21678,66.3091369 1686.21678,62.0780372 C1686.21678,57.8469375 1689.64676,54.4169534 1693.87786,54.4169534 Z M1693.87786,56.970648 C1691.05713,56.970648 1688.77047,59.257304 1688.77047,62.0780372 C1688.77047,64.8987703 1691.05713,67.1854263 1693.87786,67.1854263 C1695.23243,67.1854263 1696.53151,66.6473279 1697.48933,65.6895067 C1698.44715,64.7316854 1698.98525,63.432601 1698.98525,62.0780372 C1698.98525,59.257304 1696.6986,56.970648 1693.87786,56.970648 Z" id="Combined-Shape"></path>
        </g>
    </g>
</svg>