<?xml version="1.0" encoding="UTF-8"?>
<svg width="27px" height="27px" viewBox="0 0 27 27" version="1.1" xmlns="http://www.w3.org/2000/svg" xmlns:xlink="http://www.w3.org/1999/xlink">
    <!-- Generator: Sketch 60.1 (88133) - https://sketch.com -->
    <title>Shape</title>
    <desc>Created with Sketch.</desc>
    <g id="Page-1" stroke="none" stroke-width="1" fill="none" fill-rule="evenodd">
        <g id="Landing-Copy-3" transform="translate(-1595.000000, -52.000000)" fill="#000000" fill-rule="nonzero">
            <path d="M1614.25,69 L1613.065,69 L1612.645,68.595 C1614.115,66.885 1615,64.665 1615,62.25 C1615,56.865 1610.635,52.5 1605.25,52.5 C1599.865,52.5 1595.5,56.865 1595.5,62.25 C1595.5,67.635 1599.865,72 1605.25,72 C1607.665,72 1609.885,71.115 1611.595,69.645 L1612,70.065 L1612,71.25 L1619.5,78.735 L1621.735,76.5 L1614.25,69 Z M1605.25,69 C1601.515,69 1598.5,65.985 1598.5,62.25 C1598.5,58.515 1601.515,55.5 1605.25,55.5 C1608.985,55.5 1612,58.515 1612,62.25 C1612,65.985 1608.985,69 1605.25,69 Z" id="Shape"></path>
        </g>
    </g>
</svg>